<svg width="1366" height="1024" viewBox="0 0 1366 1024" fill="none" xmlns="http://www.w3.org/2000/svg">
<g filter="url(#filter0_f_678_904)">
<path d="M679.042 27.1404C679.707 22.5767 686.293 22.5767 686.958 27.1404L734.865 355.634C735.343 358.911 739.369 360.221 741.684 357.853L1001.61 92.0061C1004.91 88.6302 1010.31 92.7569 1007.92 96.8281L833.259 394.239C831.391 397.42 834.459 401.219 837.962 400.063L1233.24 269.613C1237.86 268.089 1240.69 274.575 1236.42 276.918L892.577 465.84C889.102 467.749 890.224 473.008 894.176 473.332L1317.36 508.013C1322.25 508.415 1322.25 515.585 1317.36 515.987L894.176 550.668C890.224 550.992 889.102 556.251 892.577 558.16L1236.42 747.082C1240.69 749.425 1237.86 755.911 1233.24 754.387L837.962 623.937C834.459 622.781 831.391 626.58 833.259 629.761L1007.92 927.172C1010.31 931.243 1004.91 935.37 1001.61 931.994L741.684 666.147C739.369 663.779 735.343 665.089 734.865 668.366L686.958 996.86C686.293 1001.42 679.707 1001.42 679.042 996.86L631.135 668.366C630.657 665.089 626.631 663.779 624.316 666.147L364.39 931.994C361.089 935.37 355.69 931.243 358.08 927.172L532.741 629.761C534.609 626.58 531.541 622.781 528.038 623.937L132.756 754.386C128.136 755.911 125.312 749.425 129.576 747.082L473.423 558.16C476.898 556.251 475.776 550.992 471.824 550.668L48.6445 515.987C43.7468 515.585 43.7468 508.415 48.6445 508.013L471.824 473.332C475.776 473.008 476.898 467.749 473.423 465.84L129.576 276.918C125.312 274.575 128.136 268.089 132.756 269.613L528.038 400.063C531.541 401.219 534.609 397.42 532.741 394.239L358.08 96.8282C355.69 92.7569 361.089 88.6302 364.39 92.0061L624.316 357.853C626.631 360.221 630.657 358.911 631.135 355.634L679.042 27.1404Z" fill="#C8E9EA" fill-opacity="0.8"/>
</g>
<defs>
<filter id="filter0_f_678_904" x="-32.4283" y="-53.6824" width="1430.86" height="1131.36" filterUnits="userSpaceOnUse" color-interpolation-filters="sRGB">
<feFlood flood-opacity="0" result="BackgroundImageFix"/>
<feBlend mode="normal" in="SourceGraphic" in2="BackgroundImageFix" result="shape"/>
<feGaussianBlur stdDeviation="38.7" result="effect1_foregroundBlur_678_904"/>
</filter>
</defs>
</svg>
